<svg xmlns="http://www.w3.org/2000/svg" viewBox="0 0 429.09 483.54"><defs><style>.cls-1{isolation:isolate;}.cls-2{opacity:0.6;}.cls-11,.cls-13,.cls-3,.cls-7{mix-blend-mode:multiply;}.cls-4{fill:#c8f0e7;}.cls-5{fill:#cff3e9;}.cls-6{fill:#c6f0e4;}.cls-7{opacity:0.1;}.cls-8{fill:#14305e;}.cls-11,.cls-9{fill:#42a47b;}.cls-10{fill:#1d684d;}.cls-11,.cls-13{opacity:0.3;}.cls-12,.cls-13{fill:#60cca8;}.cls-14{fill:#234b6f;}.cls-15{fill:#ef7f33;}.cls-16{fill:#ed611b;}.cls-17{fill:#ffad1d;}.cls-18{fill:#f7d53e;}.cls-19{opacity:0.4;}.cls-20{fill:#f2b9a0;}.cls-21,.cls-22{fill:#ea9675;}.cls-21{opacity:0.5;}.cls-23{fill:#dd7c62;}.cls-24{fill:#fae3d3;}.cls-25{fill:#fff3eb;}.cls-26{fill:#f7434c;}.cls-27{fill:#e53546;}</style></defs><g class="cls-1"><g id="Calque_2" data-name="Calque 2"><g id="BACKGROUND"><g class="cls-2"><g class="cls-3"><path class="cls-4" d="M153.68,297c6.36-45,1.1-91.22-22.53-129.75-4.91-8.56-18.41-30.58-31.56-24.14-10.7,4.61-9.15,26-9.13,35.22C71.76,159,39.58,130,10.83,147.79s7.11,51.71,22.44,63.94c11,8.55,23.89,16.5,36.15,24.13-14.08,3.7-34.58,9.54-21.7,26.66,11.34,14.07,31.56,19.55,47.79,22.28-5.51,1.84-21.73,5.23-22,13.5-.6,8.88,14.09,13.14,20.22,14.66a73.29,73.29,0,0,0,50.8-6.8Z"/></g><g class="cls-3"><path class="cls-5" d="M270.28,195.73a82.77,82.77,0,0,0,29.9-15.79c6.34-5.48,20.15-17.23,18.14-27.44-2.93-14.7-32.65.14-17.49-19.8,6-7.91,37.64-38.12,14.26-42.33-4.75-.89-14.69.77-18.11-4-3.86-5.64,2.86-15.18,5-20.09,7.89-19,8.46-40.72-9.39-44S267.42,39.46,268,60c.21,5.34,3.05,16.66-2.57,20.54-4.9,3.23-13.59-1.89-18.34-2.76-23.34-4.45-4.63,35.09-1.86,44.63,7,24-15.42-.46-23.43,12.22-5.53,8.81,3.15,24.72,7.1,32.12a83.18,83.18,0,0,0,22.26,25.46Z"/></g><g class="cls-3"><path class="cls-6" d="M302.77,241.71c-14-30.36-24.54-63.74-21.8-97.81.38-6.87,1-26.16,11.35-27.1,8.39-1.11,15.28,12.27,18.21,18.29,5.56,11.42,8.87,23.56,12.19,35.71-6.27-29.67-11.18-61.88-3.24-92.15,1.87-6.86,5.9-21.47,14.88-21.38,9.12-.36,13.49,11.65,15.66,18.4,4.64,14.11,4.78,29.66,5.22,44.32,4.24-19.55,8.79-40,20.18-57.06,7.6-11.89,20.77-26.86,36-29.09,31.91-5.51-13.41,53.4-18.55,59.62-8.79,11-17.58,22-26.07,33.53A74.42,74.42,0,0,1,395,109.19c6.75-2.18,26.57-8.85,33.07-1.61,11.39,11.93-74.45,56.36-82.16,64.21,15.63-7.62,32.46-15.82,50.85-15.48,11.36.42,23.87,6.23,14.61,18.55C399.69,189.84,318,237.26,302.77,241.71Z"/></g><g class="cls-3"><path class="cls-4" d="M327.11,322c-12.67-33.81-16.53-70.56-4.83-104.51,2.34-7.49,9-26.89,20.34-24.15,9.09,1.73,11.57,18.62,13.13,25.74,11.2-18.15,31.17-46.2,56.52-37.34s3.38,41.34-6.4,53.45c-7.09,8.54-15.71,16.91-23.9,24.93,11.56.45,28.46,1.46,21.41,17-6.38,12.86-21.11,20.58-33.23,25.49,4.59.48,17.75.33,19.4,6.68,2,6.79-8.68,12.62-13.17,14.85a58.22,58.22,0,0,1-40.57,3.46Z"/></g><g class="cls-3"><path class="cls-5" d="M151.2,219c11.36-10.12,20-21,26-33.69C181.46,176,190.76,156,182.13,147c-12.47-13-38.87,19.67-33-9.35,2.34-11.5,21.64-60.64-8.82-50.86-6.21,1.94-17.06,9.56-24.06,6.83-8-3.33-5.85-16.89-6.34-23.06C107.8,46.89,95.19,24.78,71.86,32.15S52.39,64.4,65.6,84.58c3.5,5.22,13.81,14.84,9.48,22.08-3.89,6.17-17.38,6.24-23.58,8.22-30.56,9.51,15.9,37.87,25,45.74,23,19.87-18.69,8.77-20.5,26.24C54.81,199,74.88,209.71,84.11,214.74c12.85,6.69,26.62,10.52,42.1,12.15Z"/></g><g class="cls-3"><path class="cls-6" d="M191.29,205.47c-25.56-13.9-50.22-31.75-66-56.95-3.31-5-12.87-18.79-6.15-24.81,5.28-5.12,17,.64,22.2,3.32,9.81,5.08,18.43,11.84,27,18.6-19.78-17.46-39.92-37.39-50.09-62.64-2.26-5.76-7-18.06-.71-22.65,6.18-5,15.46,1.13,20.48,4.72,10.56,7.44,18.73,18.22,26.65,28.22C157.55,77.43,150.12,60.81,149.21,43c-.87-12.24.55-29.52,10.06-39,19.41-20.4,18.35,44.24,18,51.25-.44,12.23-.88,24.45-.8,36.94a65,65,0,0,1,10.41-27c3.59-5,13.95-20,22.25-18.28,14.14,2.42-22.72,78-24,87.46,7-13.43,14.46-27.89,27.47-37.2,8.14-5.6,19.89-8,19.82,5.37C232,119,199.61,194.47,191.29,205.47Z"/></g></g></g><g id="OBJECTS"><g class="cls-7"><path class="cls-8" d="M347.93,303.13a5.79,5.79,0,0,0-5.06,2.07h0c-4.55,5-5.35,17.67-6.25,24.09v.05c0,.24-.06.47-.1.69l0,.19-.09.51,0,.19c0,.21-.08.41-.12.59a35.65,35.65,0,0,1-1.73,5.34L339,268.91l68.07-15.43L349,212.29l28.72-39,5.4-3.43,0-.06a.36.36,0,0,1-.05-.09l0-.1-.08-.17a.8.8,0,0,1-.08-.16c0-.07-.07-.14-.11-.22l-.15-.29-.26-.51c0-.08-.08-.17-.13-.26s-.14-.27-.21-.42l0,0,10.38-14.09L372.63,151l-.16-.27-.05-.07c-.85-1.4-1.75-2.83-2.67-4.27l0,0-.88-1.37-.14-.21c-1.23-1.89-2.52-3.78-3.84-5.65l-.17-.24-.92-1.27-.2-.28a103.76,103.76,0,0,0-10.64-12.65s-14.3,11.1-28.46,3.16S313,102.26,313,102.26c-21.52-5.42-55.24-2.67-55.24-2.67l-1.81,35.56,15,.72L269.57,138l-3.92-.49-15.19,32.05-7.41,12.24c4.37-13.52,6.07-25.76.4-34-8.35-12.65-14-19.4-10.27-36.61,4.62-20.8,18-37.61,32.74-52.92l-2,0c3-4.39,5.73-8.94,9.76-12.41.72-.62-.33-1.64-1-1-4.34,3.73-7.21,8.71-10.43,13.39l-.87,0h0l-3-.06c2.88-4.65,5.83-9.31,9.91-12.94.7-.64-.35-1.66-1.05-1-4.38,3.9-7.48,8.95-10.56,13.94L253.84,58a113.65,113.65,0,0,1,8.72-13.2c.58-.73-.46-1.76-1.05-1A121.94,121.94,0,0,0,252.16,58l-3.41-.07c2.73-4.45,5.42-9,9.07-12.71a.73.73,0,0,0-1.05-1c-3.93,4.05-6.76,8.92-9.72,13.69l-5.44-.11A52,52,0,0,1,252.75,44c.72-.61-.34-1.63-1.05-1A53.41,53.41,0,0,0,240,57.7l-2.59-.06c2.41-5,5-9.9,8.89-13.75a.74.74,0,0,0-1.05-1c-4.13,4.13-6.89,9.45-9.45,14.75L232,57.53A50.56,50.56,0,0,1,240.87,44c.66-.68-.39-1.7-1-1A52.55,52.55,0,0,0,230.4,57.5l-4.35-.09c2.79-4.73,6.3-9,9.42-13.56.54-.78-.74-1.5-1.27-.73-3.28,4.75-7,9.25-9.82,14.26H224C209.9,73.28,197.3,90.63,193.59,111.6a42.38,42.38,0,0,0-.53,12.36c-1.49-.8-3.06-1.64-4.7-2.49l-.47-.24-1.39-.72-.56-.28-1.42-.72-.58-.29-1.49-.75-.45-.22c-2.42-1.2-4.95-2.42-7.57-3.64l-.41-.18-1.72-.79-.57-.26-1.71-.77-.58-.26-1.79-.79-.44-.19c-2.8-1.21-5.67-2.41-8.6-3.57l-.38-.15-1.92-.75-.59-.23-1.89-.71-.61-.23-1.94-.7-.49-.18c-3-1.07-6-2.09-9.09-3l-.45-.14-2-.59-.67-.2-1.91-.54-.69-.2-1.95-.52-.58-.15c-3-.79-6.07-1.49-9.1-2.09l-.55-.11-1.9-.35-.75-.13q-.92-.17-1.83-.3l-.77-.12-1.84-.27-.69-.08c-.64-.09-1.29-.17-1.93-.24l-.16,0q-3.31-.36-6.57-.5l-.68,0-1.71,0h-2.48l-.86,0-1.62,0-.8.05-1.67.1-.48,0c-1.37.11-2.72.26-4.06.46h0a46.79,46.79,0,0,0-21.22,8.31s8.13,15.44-2.35,27.1-27.23,5.83-27.23,5.83c-20.87,36,21.12,95.92,40.19,120.09L82,259.35l2.68.71c4,4.92,6.51,7.77,6.51,7.77l.55-.1V338a42.45,42.45,0,0,1-2.2-6.52c0-.18-.08-.38-.12-.59a1.29,1.29,0,0,0,0-.19c0-.16,0-.33-.08-.5l0-.21c0-.21-.07-.42-.1-.64v-.11c-.9-6.43-1.71-19.09-6.26-24.08h0a5.79,5.79,0,0,0-5.06-2.07c-9.42.93-1.1,48.11,5.42,60.13,8,14.78,26.06,37.32,30.25,38.7,20.27,6.69,51.95,19.49,53.38,29.24s-10,52.34-10,52.34h51.66s-1.05-9.88-2.08-21.34c4,4.91,8.07,9.69,11.52,14.07-.45,4.41-.75,7.27-.75,7.27h51.66s-11.42-42.6-10-52.34S292,408.65,312.25,402c4.2-1.38,22.25-23.92,30.26-38.7C349,351.24,357.35,304.06,347.93,303.13Zm-220-175.37a405.07,405.07,0,0,1,46.74,13.81l-27.58,2.19Zm76.3,26a16.53,16.53,0,0,0,2.77-3.63,24.54,24.54,0,0,1,3,13ZM73.51,188.32l7,6.13L91.7,212.29l-2.32,11.23A374.56,374.56,0,0,1,73.51,188.32ZM204.23,421.6a70.07,70.07,0,0,0-3.29-18.32l7.12,1.77,17.37-3.56c-4.05,10.54-4.13,22-4.19,29.64,0,.4,0,.8,0,1.18v.09c0,.55,0,1.08,0,1.58,0,1,0,2-.09,3.13C217.63,432.24,210.91,424.26,204.23,421.6Z"/></g><polygon class="cls-9" points="84.43 205.47 46.17 142.85 188.34 131.26 227.44 195.73 258.38 128.8 385.04 145.17 334.91 214.93 203.82 244.13 84.43 205.47"/><polygon class="cls-10" points="84.43 205.47 203.82 244.13 334.91 214.93 341.71 205.47 227.44 195.73 84.43 205.47"/><polygon class="cls-9" points="84.43 373.39 200.79 403.08 324.38 377.1 335.38 207.79 203.82 227.74 84.43 205.47 84.43 373.39"/><polygon class="cls-11" points="203.11 227.61 84.43 205.47 84.43 265.19 198.54 301.96 203.11 227.61"/><polygon class="cls-12" points="335.38 207.79 203.82 227.74 200.79 403.08 324.38 377.1 335.38 207.79"/><polygon class="cls-13" points="331.15 272.83 335.38 207.79 204.47 227.64 211.99 301.96 331.15 272.83"/><polygon class="cls-12" points="203.82 227.74 242.14 284.33 399.83 247.7 341.71 205.47 203.82 227.74"/><polygon class="cls-9" points="196.68 286.65 203.82 227.74 84.43 205.47 74.69 253.72 196.68 286.65"/><path class="cls-6" d="M225.14,333.52l.1-11.19q0-1.14-.21-3.45c-.14-1.55-.21-2.53-.21-3a1.46,1.46,0,0,1,.4-1.05,1.51,1.51,0,0,1,.85-.48c2.44-.34,4.41.81,5.94,3.44a9.71,9.71,0,0,1,1.32,5l-.08,1.79v2a23.68,23.68,0,0,1-.31,4.81,18.37,18.37,0,0,1-.67,2.08,7.78,7.78,0,0,1-.83,1.54,10.4,10.4,0,0,1-2.84,2.68L226,338C225.44,338.11,225.14,336.61,225.14,333.52Zm2.47,1.64V336c2.06-.29,3.29-2.54,3.71-6.76.09-1,.14-1.9.14-2.78q0-10.71-4.12-10.61a22.27,22.27,0,0,0-.26,3.89c0,1.63.08,4.17.26,7.62S227.61,333.42,227.61,335.16Z"/><path class="cls-6" d="M235.31,325.68l0-1.36c0-.11,0-.16,0-.16v-.64a35.07,35.07,0,0,1,.64-8,6.78,6.78,0,0,1,1-2.6,1.64,1.64,0,0,1,1-.61,4.82,4.82,0,0,1,5.67,3.36,15.64,15.64,0,0,1,.91,5.75v.26l.07,4q0,10.2-4.73,10.86a2.74,2.74,0,0,1-3-1.74,11.39,11.39,0,0,1-1.21-3.92A44.07,44.07,0,0,1,235.31,325.68Zm2.1-5.14-.17,3.29a41.37,41.37,0,0,0,.83,8.86c.59,1.4,1.15,2.2,1.68,2.39a1.91,1.91,0,0,0,1.16-.68,4.27,4.27,0,0,0,.82-1.51,17.93,17.93,0,0,0,.51-1.92,20.38,20.38,0,0,0,.3-2.08c.11-1.27.17-2.36.17-3.24s-.08-2.24-.24-4.06-.23-3.17-.23-4.07v-.62a3.22,3.22,0,0,0-.85-2.19,2.21,2.21,0,0,0-2.08-.72,1.91,1.91,0,0,0-1.6,1.59,10.84,10.84,0,0,0-.33,2.87Z"/><path class="cls-6" d="M246.81,320.55l.21-6.64a3.6,3.6,0,0,1,1.3-2.8v.22a.55.55,0,0,1,.26-.12c.55-.07,1.24.78,2.08,2.58a46.65,46.65,0,0,1,2.25,6c.67,2.19,1.33,4.41,2,6.64s1.07,3.54,1.23,3.92q.72-7.53.71-18.09l-.05-.94c0-.71.3-1.1.88-1.18a.7.7,0,0,1,.76.31,1.61,1.61,0,0,1,.25.93V314c0,2.78-.15,6.51-.37,11.19s-.53,7.34-.91,8a6.8,6.8,0,0,1-1.34.49.61.61,0,0,1-.57-.18,1.51,1.51,0,0,1-.32-.72,3.39,3.39,0,0,0-.21-.66V332c0-.88-.84-3.55-2.54-8s-2.93-7.52-3.69-9.17v17.85l.14.22a1.26,1.26,0,0,1,.23.68,1.13,1.13,0,0,1-.32.7,1.22,1.22,0,0,1-.76.44c-.77.1-1.16-.56-1.16-2Z"/><path class="cls-6" d="M269,324.58l.38,2.13a13.78,13.78,0,0,0,.34,2.07,13.19,13.19,0,0,1,.34,2.15v0a1.13,1.13,0,0,1-.59,1.09,2.19,2.19,0,0,1-1.16-.08c-.28-.12-.42-.41-.42-.88a25.24,25.24,0,0,0-.52-4.31l-3.49,0a19.18,19.18,0,0,0-.51,2.65c-.11.95-.22,1.65-.32,2.09-.21.91-.6,1.4-1.16,1.48a1.14,1.14,0,0,1-.77-.16.71.71,0,0,1-.36-.64l.09-.32a163.21,163.21,0,0,0,3.54-18.47c0-.17.06-.64.11-1.44a8.64,8.64,0,0,1,.66-3.4l1.19-.16a1.47,1.47,0,0,1,.85.1.64.64,0,0,1,.36.63,62.77,62.77,0,0,0,.72,7.91A62.68,62.68,0,0,1,269,324.58Zm-1.85,1a10,10,0,0,1-.11-1.79c0-.86,0-1.92-.14-3.18s-.24-2.73-.42-4.39-.32-2.88-.39-3.63q-1.6,9.15-2.07,12.86A7.83,7.83,0,0,0,267.14,325.55Z"/><path class="cls-6" d="M274.36,330.46l-.07-2.71s0-.42,0-1.22q-.13-.42-.56-7.92c-.28-5-.44-8-.46-9.16l-.14,0c-1.92.23-2.87,0-2.87-.65a.74.74,0,0,1,.38-.6,1.64,1.64,0,0,1,.74-.32l4.81-.35.58-.1q1.11-.15,1.11.69a1,1,0,0,1-.37.76,1.52,1.52,0,0,1-.81.38l-1.63,0-.07.38q0,3.36.59,10t.59,10a1.11,1.11,0,0,1-.38.79,1.46,1.46,0,0,1-.83.43Z"/><path class="cls-6" d="M283.4,318l.17,7.51v1l0,1,.47-.06,1-.18c1-.14,1.46.09,1.46.68a1.16,1.16,0,0,1-.36.82,1.4,1.4,0,0,1-.82.43l-1.56.22a15.09,15.09,0,0,1-2.06.22,3.05,3.05,0,0,1-.43.1c-.85.12-1.27-.09-1.27-.62a1.17,1.17,0,0,1,.21-.65.74.74,0,0,1,.42-.37l1-.14.07-.48-.24-7.5.19-7.92a37.15,37.15,0,0,0-.18-3.78l-.67.09-.82.15a1.37,1.37,0,0,1-.81-.08c-.2-.11-.29-.35-.29-.72,0-.54.58-.89,1.75-1.06l4.22-.59q1.44-.19,1.44.54a.94.94,0,0,1-.32.65,1.22,1.22,0,0,1-.7.38l-1.82.25c.09,1,.14,2.05.14,3.27Z"/><path class="cls-6" d="M288,318.28l0-1.36c0-.11,0-.16-.05-.16v-.64a35.07,35.07,0,0,1,.64-8,6.93,6.93,0,0,1,1-2.61,1.75,1.75,0,0,1,1-.6,4.84,4.84,0,0,1,5.68,3.36,15.93,15.93,0,0,1,.9,5.76v.26l.06,4q0,10.2-4.72,10.87a2.76,2.76,0,0,1-3-1.75,11.39,11.39,0,0,1-1.21-3.92A43.84,43.84,0,0,1,288,318.28Zm2.09-5.14-.17,3.3a40.71,40.71,0,0,0,.83,8.85c.59,1.4,1.15,2.2,1.68,2.39a1.91,1.91,0,0,0,1.16-.68,4.27,4.27,0,0,0,.82-1.51,17.93,17.93,0,0,0,.51-1.92,20.38,20.38,0,0,0,.3-2.08c.11-1.27.17-2.35.17-3.24s-.08-2.24-.23-4.06-.24-3.17-.24-4.07v-.62a3.26,3.26,0,0,0-.85-2.2,2.22,2.22,0,0,0-2.07-.71,1.91,1.91,0,0,0-1.61,1.59,10.84,10.84,0,0,0-.33,2.87Z"/><path class="cls-6" d="M299.46,313.15l.21-6.64a3.6,3.6,0,0,1,1.3-2.8v.22a.63.63,0,0,1,.26-.11c.55-.09,1.24.77,2.07,2.57a45.18,45.18,0,0,1,2.26,6c.67,2.19,1.33,4.41,2,6.64s1.07,3.54,1.24,3.92q.7-7.53.71-18.09l-.06-.94c0-.71.3-1.1.89-1.18a.7.7,0,0,1,.75.31,1.61,1.61,0,0,1,.25.93v2.68c0,2.79-.15,6.52-.37,11.2s-.53,7.34-.91,8a6.58,6.58,0,0,1-1.34.49.61.61,0,0,1-.57-.17,1.55,1.55,0,0,1-.32-.73,3,3,0,0,0-.21-.66v-.16c0-.88-.84-3.55-2.54-8s-2.93-7.52-3.69-9.17v17.85l.14.22a1.26,1.26,0,0,1,.23.68,1.13,1.13,0,0,1-.32.7,1.22,1.22,0,0,1-.76.44c-.77.11-1.16-.56-1.16-2Z"/><path class="cls-14" d="M96.07,207.64,66.24,180.89s14.09,38.66,36.51,72c-5.41,7.38-18.87,9.52-18.87,9.52s-75.54-87-48.94-134c0,0,16.76,6,27.23-6s2.35-27.78,2.35-27.78c43.09-32.54,139.24,30.91,139.24,30.91s-.36,13.63-7,20c-36-17.84-76.17-26.73-76.17-26.73l67.15,57.47-36.49,41.65Z"/><path class="cls-8" d="M203.76,125.59s-70.7-46.66-118-39.43c18.74,39.41,37,82.83,39.79,127l25.76,4.8,36.49-41.65-67.15-57.47s40.17,8.89,76.17,26.73C203.4,139.22,203.76,125.59,203.76,125.59Z"/><path class="cls-15" d="M314.44,209.88l22.64-40.51,8.17,12.54L375.83,162s-14.54-30.54-30.17-46.34c0,0-14.3,11.38-28.46,3.24s-11.52-26.22-11.52-26.22c-21.52-5.55-55.24-2.74-55.24-2.74l-1.81,36.46,14.95.74-44.89,76,30.17,17.34Z"/><path class="cls-16" d="M355.36,127.3c-29.92,40.29-77.87,69.14-126.86,81.47l20.36,11.7,65.58-10.59,22.64-40.51,8.17,12.54L375.83,162S366.82,143.07,355.36,127.3Z"/><path class="cls-17" d="M226.93,32.05c-4,5.93-8.63,11.46-11.56,18-.39.86.89,1.62,1.28.75,2.93-6.58,7.57-12.12,11.56-18C228.74,32,227.46,31.26,226.93,32.05Z"/><path class="cls-17" d="M232.56,31.9c-5.76,6.17-9.46,14.17-12.32,22-.32.9,1.11,1.28,1.43.39,2.77-7.6,6.36-15.4,11.93-21.37C234.26,32.25,233.21,31.2,232.56,31.9Z"/><path class="cls-17" d="M237.93,31.79c-5.79,5.93-8.88,14.26-12.52,21.57-.42.85.85,1.6,1.28.75,3.57-7.18,6.61-15.45,12.29-21.28C239.64,32.15,238.6,31.1,237.93,31.79Z"/><path class="cls-17" d="M245.48,33c.72-.63-.34-1.68-1-1.05-6.7,5.84-11.9,14.07-15.13,22.31-.35.89,1.08,1.27,1.43.39A56.49,56.49,0,0,1,245.48,33Z"/><path class="cls-17" d="M249.5,33.1c-6,6.36-9.46,14.7-14.74,21.61-.58.76.71,1.5,1.28.75,5.2-6.81,8.58-15.05,14.51-21.31C251.21,33.46,250.16,32.41,249.5,33.1Z"/><path class="cls-17" d="M254.24,32.7c-5.32,6.82-9.18,14.65-13.75,21.95-.51.82.77,1.56,1.28.75,4.5-7.19,8.28-14.94,13.52-21.65C255.87,33,254.83,32,254.24,32.7Z"/><path class="cls-17" d="M261,34.1c.7-.64-.35-1.69-1.05-1-6.24,5.7-9.89,13.8-14.6,20.69-.55.79.74,1.53,1.28.75C251.22,47.72,254.8,39.72,261,34.1Z"/><path class="cls-17" d="M265.33,33.73c-6.2,5.46-9.39,13.52-14.89,19.59-.64.71.4,1.76,1,1,5.51-6.07,8.71-14.13,14.9-19.6C267.1,34.14,266.05,33.1,265.33,33.73Z"/><path class="cls-18" d="M216.29,225.85c8.78-28.83,32.48-67.71,19.89-86.53-8.35-13-14-19.89-10.27-37.54,4.62-21.32,18-38.55,32.74-54.24l-41.93-.88C202.63,63,190,80.75,186.32,102.25c-3,17.79,3,24.46,11.86,37.07,13.62,18.57-6.37,48-18.51,83.92l24.15,4.5Z"/><g class="cls-19"><path class="cls-17" d="M216.29,225.85c8.78-28.83,32.48-67.71,19.89-86.53-8.35-13-14-19.89-10.27-37.54,4.62-21.32,18-38.55,32.74-54.24l-4.62-.1C241.69,63,229.43,78.63,219.36,95.75c-6.26,11.12-16.69,29.2-13.91,42.41,2.09,12.52,16,17.38,15.3,31.29,0,13.91-10.43,30.6-16.69,43.81q-3,6.74-6.42,13.33l6.18,1.15Z"/></g><path class="cls-20" d="M209.94,483.54s3.71-35.68,4-50.8-2-53.07,38-59.37c32.45-5.12,42.24-17.13,47.66-21.41s14.62-8.29,22.16-6.85c0,0,5.81-10.84,7.24-17.41s1.58-30.13,11.7-29.11c9.42,1,1.09,49.32-5.42,61.65-8,15.15-26.06,38.26-30.26,39.67-20.26,6.85-51.94,20-53.37,30s10,53.66,10,53.66Z"/><path class="cls-21" d="M221,441.89c-.39-8.49-1.58-16.79-1.77-25.08a135.73,135.73,0,0,1,.2-20.47c-6,13-5.37,28.12-5.53,36.4-.28,15.12-4,50.8-4,50.8h8.31c.58-3.64,1.06-7.31,1.4-11C220.44,462.24,221.43,452.16,221,441.89Z"/><path class="cls-22" d="M328.49,350.82c1.79,5-8.69,11.11-17.41,22.06-5.12,6.45-21.7,10.5-36.13,25.76,0,0,27.63-18.43,35.89-21.34,2.24-.79,8.36-9.68,13.3-14.42s9.28-10.47,5.73-16,.42-7.5,1.3-18.37c.64-8,1.35-19.92,4.43-27.8-5.17,5.81-5.51,21.77-6.64,27-1.43,6.57-7.24,17.41-7.24,17.41A9,9,0,0,1,328.49,350.82Z"/><path class="cls-23" d="M327.75,351.09c.94,2.64-2.72,6.19-7.35,10.69a113.75,113.75,0,0,0-9.94,10.61c-2,2.54-6,4.74-11,7.52-7.36,4.07-16.51,9.14-25.07,18.19a.8.8,0,0,0,0,1.12.83.83,0,0,0,.55.22.79.79,0,0,0,.57-.25c8.39-8.87,17.43-13.88,24.69-17.9,5.18-2.86,9.27-5.13,11.49-7.91a110.33,110.33,0,0,1,9.8-10.46c5.24-5.09,9-8.77,7.74-12.36a9.65,9.65,0,0,0-7.13-6.18l-.39.73A10.53,10.53,0,0,1,327.75,351.09Z"/><path class="cls-24" d="M310.84,352.85c.2,2.86,5.86,9.56,8.59,8.94s8.73-6.91,9.25-9.77-5.08-8.23-10.68-6S310.74,351.36,310.84,352.85Z"/><path class="cls-25" d="M322.33,345.68a7.41,7.41,0,0,0-4.33.37c-5.61,2.27-7.26,5.31-7.16,6.8.16,2.29,3.81,7,6.66,8.51C316.93,356.32,319.15,350.36,322.33,345.68Z"/><path class="cls-20" d="M201.25,483.54s-3.71-35.68-4-50.8,2-53.07-38-59.37c-32.45-5.12-42.24-17.13-47.66-21.41S97,343.67,89.46,345.11c0,0-5.81-10.84-7.23-17.41s-1.58-30.13-11.7-29.11c-9.42,1-1.1,49.32,5.42,61.65,8,15.15,26.06,38.26,30.25,39.67,20.27,6.85,52,20,53.38,30s-10,53.66-10,53.66Z"/><path class="cls-21" d="M190.15,441.89c.4-8.49,1.59-16.79,1.78-25.08a135.73,135.73,0,0,0-.2-20.47c6,13,5.37,28.12,5.52,36.4.29,15.12,4,50.8,4,50.8h-8.31q-.88-5.46-1.4-11C190.75,462.24,189.76,452.16,190.15,441.89Z"/><path class="cls-22" d="M82.7,350.82c-1.79,5,8.68,11.11,17.41,22.06,5.12,6.45,21.7,10.5,36.13,25.76,0,0-27.63-18.43-35.89-21.34-2.24-.79-8.36-9.68-13.3-14.42s-9.28-10.47-5.73-16-.42-7.5-1.3-18.37c-.64-8-1.35-19.92-4.43-27.8,5.17,5.81,5.5,21.77,6.64,27,1.42,6.57,7.23,17.41,7.23,17.41A8.94,8.94,0,0,0,82.7,350.82Z"/><path class="cls-23" d="M83.44,351.09c-.94,2.64,2.71,6.19,7.35,10.69a113.75,113.75,0,0,1,9.94,10.61c2,2.54,6,4.74,11,7.52,7.36,4.07,16.52,9.14,25.08,18.19a.8.8,0,0,1,0,1.12.77.77,0,0,1-1.11,0c-8.39-8.87-17.43-13.88-24.69-17.9-5.18-2.86-9.28-5.13-11.49-7.91a109.08,109.08,0,0,0-9.81-10.46c-5.23-5.09-9-8.77-7.73-12.36a9.65,9.65,0,0,1,7.13-6.18l.38.73A10.53,10.53,0,0,0,83.44,351.09Z"/><path class="cls-24" d="M100.34,352.85c-.19,2.86-5.85,9.56-8.58,8.94S83,354.88,82.5,352s5.08-8.23,10.69-6S100.45,351.36,100.34,352.85Z"/><path class="cls-25" d="M88.86,345.68a7.42,7.42,0,0,1,4.33.37c5.6,2.27,7.26,5.31,7.15,6.8-.15,2.29-3.8,7-6.65,8.51C94.25,356.32,92,350.36,88.86,345.68Z"/><path class="cls-26" d="M214.55,481.36c-11.3-16.55-38.35-42-30.21-56.47,8.93-15.49,24.95,4.2,30.21,12.09,5.25-7.89,21.27-27.58,30.2-12.09C252.89,439.34,225.84,464.81,214.55,481.36Z"/><path class="cls-27" d="M244.75,424.89a13.16,13.16,0,0,0-3.66-4.26c-13.37,17.64-21.17,38.42-26,59.87C226.75,464,252.75,439.09,244.75,424.89Z"/></g></g></g></svg>